<?xml version="1.0" encoding="UTF-8"?>
<svg width="1500" height="550" xmlns="http://www.w3.org/2000/svg">
  <defs>
    <style>
      .key { fill: #2d2d2d; stroke: #00ff00; stroke-width: 2; }
      .key-number { fill: #ff00ff; font-family: 'Courier New', monospace; font-size: 20px; font-weight: bold; text-anchor: middle; }
      .encoder { fill: #1a1a1a; stroke: #ff9900; stroke-width: 2; }
      .encoder-number { fill: #ff9900; font-family: 'Courier New', monospace; font-size: 18px; font-weight: bold; text-anchor: middle; }
      .title { fill: #ffffff; font-family: 'Courier New', monospace; font-size: 28px; font-weight: bold; text-anchor: middle; }
      .subtitle { fill: #888888; font-family: 'Courier New', monospace; font-size: 14px; text-anchor: middle; }
      .section-label { fill: #ffff00; font-family: 'Courier New', monospace; font-size: 16px; font-weight: bold; }
      .row-label { fill: #00ffff; font-family: 'Courier New', monospace; font-size: 12px; }
      .thumb { fill: #3d3d3d; stroke: #00ff00; stroke-width: 2; }
    </style>
  </defs>
  
  <!-- Background -->
  <rect width="1500" height="550" fill="#0a0a0a"/>
  
  <!-- Title -->
  <text x="750" y="35" class="title">EYELASH CORNE - KEY POSITION MAP</text>
  <text x="750" y="55" class="subtitle">48 Keys Total: Row1(0-12) + Row2(13-27) + Row3(28-41) + Thumb(42-47)</text>
  
  <!-- LEFT HALF -->
  <text x="30" y="90" class="section-label">LEFT HALF</text>
  
  <!-- Row 1 Left (0-5) -->
  <text x="30" y="115" class="row-label">Row 1 (0-5)</text>
  <rect x="30" y="125" width="52" height="52" class="key" rx="6"/>
  <text x="56" y="158" class="key-number">0</text>
  
  <rect x="90" y="125" width="52" height="52" class="key" rx="6"/>
  <text x="116" y="158" class="key-number">1</text>
  
  <rect x="150" y="125" width="52" height="52" class="key" rx="6"/>
  <text x="176" y="158" class="key-number">2</text>
  
  <rect x="210" y="125" width="52" height="52" class="key" rx="6"/>
  <text x="236" y="158" class="key-number">3</text>
  
  <rect x="270" y="125" width="52" height="52" class="key" rx="6"/>
  <text x="296" y="158" class="key-number">4</text>
  
  <rect x="330" y="125" width="52" height="52" class="key" rx="6"/>
  <text x="356" y="158" class="key-number">5</text>
  
  <!-- Row 2 Left (13-18) -->
  <text x="30" y="195" class="row-label">Row 2 (13-18)</text>
  <rect x="30" y="205" width="52" height="52" class="key" rx="6"/>
  <text x="56" y="238" class="key-number">13</text>
  
  <rect x="90" y="205" width="52" height="52" class="key" rx="6"/>
  <text x="116" y="238" class="key-number">14</text>
  
  <rect x="150" y="205" width="52" height="52" class="key" rx="6"/>
  <text x="176" y="238" class="key-number">15</text>
  
  <rect x="210" y="205" width="52" height="52" class="key" rx="6"/>
  <text x="236" y="238" class="key-number">16</text>
  
  <rect x="270" y="205" width="52" height="52" class="key" rx="6"/>
  <text x="296" y="238" class="key-number">17</text>
  
  <rect x="330" y="205" width="52" height="52" class="key" rx="6"/>
  <text x="356" y="238" class="key-number">18</text>
  
  <!-- Row 3 Left (28-33) -->
  <text x="30" y="275" class="row-label">Row 3 (28-33)</text>
  <rect x="30" y="285" width="52" height="52" class="key" rx="6"/>
  <text x="56" y="318" class="key-number">28</text>
  
  <rect x="90" y="285" width="52" height="52" class="key" rx="6"/>
  <text x="116" y="318" class="key-number">29</text>
  
  <rect x="150" y="285" width="52" height="52" class="key" rx="6"/>
  <text x="176" y="318" class="key-number">30</text>
  
  <rect x="210" y="285" width="52" height="52" class="key" rx="6"/>
  <text x="236" y="318" class="key-number">31</text>
  
  <rect x="270" y="285" width="52" height="52" class="key" rx="6"/>
  <text x="296" y="318" class="key-number">32</text>
  
  <rect x="330" y="285" width="52" height="52" class="key" rx="6"/>
  <text x="356" y="318" class="key-number">33</text>
  
  <!-- Left Thumb (42-44) -->
  <text x="150" y="365" class="row-label">Thumb (42-44)</text>
  <rect x="150" y="375" width="52" height="52" class="thumb" rx="6"/>
  <text x="176" y="408" class="key-number">42</text>
  
  <rect x="210" y="385" width="52" height="52" class="thumb" rx="6"/>
  <text x="236" y="418" class="key-number">43</text>
  
  <rect x="270" y="395" width="52" height="52" class="thumb" rx="6"/>
  <text x="296" y="428" class="key-number">44</text>
  
  <!-- CENTER ENCODER AREA -->
  <text x="480" y="90" class="section-label">ENCODER KEYS</text>
  
  <!-- Encoder Row 1 (position 6) -->
  <text x="480" y="115" class="row-label">Row 1 (6)</text>
  <rect x="490" y="125" width="52" height="52" class="encoder" rx="6"/>
  <text x="516" y="158" class="encoder-number">6</text>
  
  <!-- Encoder Row 2 (positions 19, 20, 21) -->
  <text x="430" y="195" class="row-label">Row 2 (19-21)</text>
  <rect x="430" y="205" width="52" height="52" class="encoder" rx="6"/>
  <text x="456" y="238" class="encoder-number">19</text>
  
  <rect x="490" y="205" width="52" height="52" class="encoder" rx="6"/>
  <text x="516" y="238" class="encoder-number">20</text>
  
  <rect x="550" y="205" width="52" height="52" class="encoder" rx="6"/>
  <text x="576" y="238" class="encoder-number">21</text>
  
  <!-- Encoder Row 3 (positions 34, 35) -->
  <text x="410" y="275" class="row-label">Row 3 (34-35)</text>
  <rect x="410" y="285" width="52" height="52" class="encoder" rx="6"/>
  <text x="436" y="318" class="encoder-number">34</text>
  
  <rect x="490" y="285" width="52" height="52" class="encoder" rx="6"/>
  <text x="516" y="318" class="encoder-number">35</text>
  
  <!-- RIGHT HALF -->
  <text x="650" y="90" class="section-label">RIGHT HALF</text>
  
  <!-- Row 1 Right (7-12) -->
  <text x="650" y="115" class="row-label">Row 1 (7-12)</text>
  <rect x="650" y="125" width="52" height="52" class="key" rx="6"/>
  <text x="676" y="158" class="key-number">7</text>
  
  <rect x="710" y="125" width="52" height="52" class="key" rx="6"/>
  <text x="736" y="158" class="key-number">8</text>
  
  <rect x="770" y="125" width="52" height="52" class="key" rx="6"/>
  <text x="796" y="158" class="key-number">9</text>
  
  <rect x="830" y="125" width="52" height="52" class="key" rx="6"/>
  <text x="856" y="158" class="key-number">10</text>
  
  <rect x="890" y="125" width="52" height="52" class="key" rx="6"/>
  <text x="916" y="158" class="key-number">11</text>
  
  <rect x="950" y="125" width="52" height="52" class="key" rx="6"/>
  <text x="976" y="158" class="key-number">12</text>
  
  <!-- Row 2 Right (22-27) -->
  <text x="650" y="195" class="row-label">Row 2 (22-27)</text>
  <rect x="650" y="205" width="52" height="52" class="key" rx="6"/>
  <text x="676" y="238" class="key-number">22</text>
  
  <rect x="710" y="205" width="52" height="52" class="key" rx="6"/>
  <text x="736" y="238" class="key-number">23</text>
  
  <rect x="770" y="205" width="52" height="52" class="key" rx="6"/>
  <text x="796" y="238" class="key-number">24</text>
  
  <rect x="830" y="205" width="52" height="52" class="key" rx="6"/>
  <text x="856" y="238" class="key-number">25</text>
  
  <rect x="890" y="205" width="52" height="52" class="key" rx="6"/>
  <text x="916" y="238" class="key-number">26</text>
  
  <rect x="950" y="205" width="52" height="52" class="key" rx="6"/>
  <text x="976" y="238" class="key-number">27</text>
  
  <!-- Row 3 Right (36-41) -->
  <text x="650" y="275" class="row-label">Row 3 (36-41)</text>
  <rect x="650" y="285" width="52" height="52" class="key" rx="6"/>
  <text x="676" y="318" class="key-number">36</text>
  
  <rect x="710" y="285" width="52" height="52" class="key" rx="6"/>
  <text x="736" y="318" class="key-number">37</text>
  
  <rect x="770" y="285" width="52" height="52" class="key" rx="6"/>
  <text x="796" y="318" class="key-number">38</text>
  
  <rect x="830" y="285" width="52" height="52" class="key" rx="6"/>
  <text x="856" y="318" class="key-number">39</text>
  
  <rect x="890" y="285" width="52" height="52" class="key" rx="6"/>
  <text x="916" y="318" class="key-number">40</text>
  
  <rect x="950" y="285" width="52" height="52" class="key" rx="6"/>
  <text x="976" y="318" class="key-number">41</text>
  
  <!-- Right Thumb (45-47) -->
  <text x="710" y="365" class="row-label">Thumb (45-47)</text>
  <rect x="710" y="395" width="52" height="52" class="thumb" rx="6"/>
  <text x="736" y="428" class="key-number">45</text>
  
  <rect x="770" y="385" width="52" height="52" class="thumb" rx="6"/>
  <text x="796" y="418" class="key-number">46</text>
  
  <rect x="830" y="375" width="52" height="52" class="thumb" rx="6"/>
  <text x="856" y="408" class="key-number">47</text>
  
  <!-- Legend -->
  <text x="1080" y="130" class="section-label">LEGEND</text>
  
  <rect x="1080" y="145" width="30" height="30" class="key" rx="4"/>
  <text x="1120" y="168" class="row-label">Main Keys (green)</text>
  
  <rect x="1080" y="185" width="30" height="30" class="encoder" rx="4"/>
  <text x="1120" y="208" class="row-label">Encoder Keys (orange)</text>
  
  <rect x="1080" y="225" width="30" height="30" class="thumb" rx="4"/>
  <text x="1120" y="248" class="row-label">Thumb Keys</text>
  
  <!-- Key mapping reference -->
  <text x="1080" y="290" class="section-label">BASE LAYER REF</text>
  <text x="1080" y="310" class="row-label">0=TAB, 1-5=QWERT, 6=F3</text>
  <text x="1080" y="325" class="row-label">7-10=YUIO, 11=P, 12==</text>
  <text x="1080" y="345" class="row-label">13=SHIFT, 14-18=ASDFG</text>
  <text x="1080" y="360" class="row-label">19=F1, 20=F12, 21=F2</text>
  <text x="1080" y="375" class="row-label">22-27=HJKL;'</text>
  <text x="1080" y="395" class="row-label">28=CTRL, 29-33=ZXCVB</text>
  <text x="1080" y="410" class="row-label">34=PP, 35=F4</text>
  <text x="1080" y="425" class="row-label">36-41=NM,.\ESC</text>
  <text x="1080" y="445" class="row-label">42-44=ALT,GUI,SPC</text>
  <text x="1080" y="460" class="row-label">45-47=ENT,BSPC,RALT</text>
  
  <!-- Position count verification -->
  <text x="750" y="520" class="subtitle">Verified: 48 positions (0-47) | Row1: 13 keys | Row2: 15 keys | Row3: 14 keys | Thumb: 6 keys</text>
</svg>
